<svg width="32" height="32" viewBox="0 0 32 32" fill="none" xmlns="http://www.w3.org/2000/svg">
<rect width="32" height="32" fill="black"/>
<path d="M14 24C13.9355 23.1862 13.5134 22.4237 12.819 21.8668C12.1246 21.3099 11.2098 21.0001 10.2594 21H9C9.55388 21.7642 10.2825 22.424 11.1419 22.9396C12.0013 23.4553 12.9736 23.816 14 24Z" fill="#F3F5F8"/>
<path d="M10.5361 18.6522C12.0382 18.6519 13.4803 19.2124 14.5517 20.2127C15.623 21.213 16.2379 22.5731 16.2638 24C16.8479 23.9957 17.4299 23.9326 18 23.8118C17.9235 21.9801 17.1035 20.2477 15.712 18.9778C14.3205 17.7079 12.4656 16.9991 10.5361 17H8C8.06217 17.5627 8.1885 18.1173 8.37678 18.6541L10.5361 18.6522Z" fill="#F3F5F8"/>
<path d="M10.545 15C11.8898 15.0007 13.2096 14.655 14.3639 13.9997C14.9339 13.6753 15.4562 13.2808 15.9173 12.8264C17.1883 11.5758 17.9297 9.92438 18 8.18747C17.4298 8.0669 16.8478 8.00406 16.2637 8C16.2379 9.42663 15.623 10.7865 14.5517 11.7866C13.4803 12.7867 12.0382 13.3471 10.5361 13.3468H8.37678C8.18851 13.8833 8.06217 14.4376 8 15H10.545Z" fill="#F3F5F8"/>
<path d="M10.2594 12C11.2097 11.9999 12.1245 11.5868 12.8188 10.8443C13.5132 10.1017 13.9354 9.08515 14 8C12.9737 8.24539 12.0015 8.72636 11.1421 9.41386C10.2827 10.1014 9.554 10.9811 9 12H10.2594Z" fill="#F3F5F8"/>
<path d="M17.084 13.8536C16.2282 14.758 15.178 15.4889 14 16C15.4741 16.6387 16.7425 17.6199 17.6806 18.8472C18.6188 20.0745 19.1944 21.5056 19.3508 23C19.9384 22.7445 20.4918 22.4269 21 22.0538C20.5504 19.6942 19.2216 17.5532 17.2428 16C17.6942 15.645 18.1145 15.2578 18.4999 14.842C19.7947 13.4464 20.6583 11.7554 21 9.94624C20.492 9.57284 19.9386 9.25529 19.3508 9C19.1656 10.7968 18.3726 12.4946 17.084 13.8536Z" fill="#F3F5F8"/>
<path d="M22.0822 11C21.4981 12.8476 20.4446 14.5565 19 16C20.4449 17.4433 21.4984 19.1523 22.0822 21C23.3268 19.5594 24 17.8042 24 16C24 14.1958 23.3268 12.4406 22.0822 11Z" fill="#F3F5F8"/>
</svg>
