<svg width="20" height="20" viewBox="0 0 20 20" fill="none" xmlns="http://www.w3.org/2000/svg">
<g clip-path="url(#clip0)">
<path d="M19.7556 18.5783L14.0682 12.8908C15.1699 11.53 15.8332 9.80085 15.8332 7.91755C15.8332 3.55259 12.2815 0.000946045 7.91656 0.000946045C3.55161 0.000946045 0 3.55255 0 7.91751C0 12.2825 3.55165 15.8341 7.9166 15.8341C9.7999 15.8341 11.5291 15.1708 12.8899 14.0691L18.5773 19.7566C18.7398 19.9191 18.9531 20.0007 19.1665 20.0007C19.3798 20.0007 19.5932 19.9191 19.7557 19.7566C20.0815 19.4308 20.0815 18.9041 19.7556 18.5783ZM7.9166 14.1674C4.46996 14.1674 1.66666 11.3642 1.66666 7.91751C1.66666 4.47086 4.46996 1.66757 7.9166 1.66757C11.3632 1.66757 14.1665 4.47086 14.1665 7.91751C14.1665 11.3642 11.3632 14.1674 7.9166 14.1674Z" fill="#131212"/>
</g>
<defs>
<clipPath id="clip0">
<rect width="20" height="20" fill="white"/>
</clipPath>
</defs>
</svg>
