<svg width="100" height="100" viewBox="0 0 100 100" fill="none" xmlns="http://www.w3.org/2000/svg">
<g clip-path="url(#clip0)">
<path d="M66.2891 50.513L100.002 71.8255V28.3005L66.2891 50.513Z" fill="url(#paint0_linear)"/>
<path d="M0 28.3005V71.8255L33.7125 50.513L0 28.3005Z" fill="url(#paint1_linear)"/>
<path d="M93.75 15.625H6.25C3.13125 15.625 0.65625 17.95 0.1875 20.9438L50 53.7625L99.8125 20.9438C99.3438 17.95 96.8688 15.625 93.75 15.625Z" fill="url(#paint2_linear)"/>
<path d="M60.5637 54.287L51.7199 60.112C51.1949 60.4558 50.6012 60.6245 50.0012 60.6245C49.4012 60.6245 48.8074 60.4558 48.2824 60.112L39.4387 54.2808L0.201172 79.0995C0.682422 82.0683 3.14492 84.3745 6.25117 84.3745H93.7512C96.8574 84.3745 99.3199 82.0683 99.8012 79.0995L60.5637 54.287Z" fill="url(#paint3_linear)"/>
</g>
<defs>
<linearGradient id="paint0_linear" x1="83.1453" y1="28.3005" x2="83.1453" y2="71.8255" gradientUnits="userSpaceOnUse">
<stop stop-color="#F5F5F5"/>
<stop offset="1" stop-color="#BEB9B9"/>
</linearGradient>
<linearGradient id="paint1_linear" x1="16.8563" y1="28.3005" x2="16.8563" y2="71.8255" gradientUnits="userSpaceOnUse">
<stop stop-color="#F5F5F5"/>
<stop offset="1" stop-color="#BEB9B9"/>
</linearGradient>
<linearGradient id="paint2_linear" x1="50" y1="15.625" x2="50" y2="53.7625" gradientUnits="userSpaceOnUse">
<stop stop-color="#F5F5F5"/>
<stop offset="1" stop-color="#BEB9B9"/>
</linearGradient>
<linearGradient id="paint3_linear" x1="50.0012" y1="54.2808" x2="50.0012" y2="84.3745" gradientUnits="userSpaceOnUse">
<stop stop-color="#F5F5F5"/>
<stop offset="1" stop-color="#BEB9B9"/>
</linearGradient>
<clipPath id="clip0">
<rect width="100" height="100" fill="white"/>
</clipPath>
</defs>
</svg>
