<svg width="30" height="30" viewBox="0 0 30 30" fill="none" xmlns="http://www.w3.org/2000/svg">
<g clip-path="url(#clip0)">
<path d="M28.0037 15.3885C27.883 15.1416 27.883 14.8583 28.0037 14.6114L29.1226 12.3225C29.7455 11.048 29.252 9.52897 27.9989 8.86412L25.7483 7.66998C25.5055 7.54119 25.339 7.31198 25.2915 7.04133L24.8514 4.53184C24.6063 3.13462 23.3138 2.19572 21.9095 2.39441L19.3869 2.75124C19.1146 2.78968 18.8454 2.70214 18.6478 2.51107L16.8167 0.739671C15.7972 -0.24669 14.1999 -0.246749 13.1804 0.739671L11.3492 2.51124C11.1516 2.70237 10.8824 2.78974 10.6102 2.75142L8.08755 2.39458C6.68278 2.19578 5.39079 3.13479 5.1457 4.53201L4.70554 7.04139C4.65802 7.31209 4.49156 7.54125 4.24881 7.6701L1.99823 8.86423C0.745156 9.52903 0.251565 11.0482 0.87453 12.3226L1.99337 14.6115C2.11407 14.8585 2.11407 15.1418 1.99337 15.3887L0.874471 17.6776C0.251506 18.952 0.745097 20.4711 1.99818 21.1359L4.24875 22.3301C4.49156 22.4588 4.65802 22.6881 4.70554 22.9587L5.1457 25.4682C5.36882 26.7401 6.45948 27.6322 7.71297 27.6321C7.83642 27.6321 7.96169 27.6234 8.08761 27.6056L10.6102 27.2487C10.8823 27.2101 11.1517 27.2978 11.3493 27.4889L13.1804 29.2603C13.6903 29.7535 14.3443 30.0001 14.9985 30C15.6526 30 16.307 29.7534 16.8167 29.2603L18.6478 27.4889C18.8454 27.2978 19.1147 27.2105 19.3869 27.2487L21.9095 27.6056C23.3145 27.8043 24.6063 26.8654 24.8514 25.4681L25.2916 22.9588C25.3391 22.6881 25.5056 22.4589 25.7483 22.3301L27.9989 21.1359C29.252 20.4711 29.7455 18.952 29.1226 17.6775L28.0037 15.3885ZM11.5379 7.21377C13.2871 7.21377 14.7101 8.63683 14.7101 10.386C14.7101 12.1351 13.2871 13.5582 11.5379 13.5582C9.78881 13.5582 8.36576 12.1351 8.36576 10.386C8.36576 8.63683 9.78881 7.21377 11.5379 7.21377ZM9.90061 21.3213C9.73168 21.4902 9.51026 21.5747 9.28889 21.5747C9.06753 21.5747 8.84605 21.4903 8.67718 21.3213C8.33933 20.9835 8.33933 20.4357 8.67718 20.0978L20.0964 8.67861C20.4342 8.34076 20.982 8.34076 21.3199 8.67861C21.6577 9.01646 21.6577 9.56425 21.3199 9.9021L9.90061 21.3213ZM18.459 22.7863C16.7099 22.7863 15.2868 21.3632 15.2868 19.6141C15.2868 17.8649 16.7099 16.4419 18.459 16.4419C20.2081 16.4419 21.6312 17.8649 21.6312 19.6141C21.6312 21.3632 20.2081 22.7863 18.459 22.7863Z" fill="#191918"/>
<path d="M18.4615 18.1722C17.6664 18.1722 17.0195 18.8191 17.0195 19.6141C17.0195 20.4092 17.6663 21.056 18.4615 21.056C19.2565 21.056 19.9033 20.4092 19.9033 19.6141C19.9033 18.8191 19.2565 18.1722 18.4615 18.1722Z" fill="#191918"/>
<path d="M11.5415 8.94403C10.7464 8.94403 10.0996 9.59084 10.0996 10.3859C10.0996 11.181 10.7464 11.8278 11.5415 11.8278C12.3365 11.8278 12.9834 11.181 12.9834 10.3859C12.9833 9.5909 12.3365 8.94403 11.5415 8.94403Z" fill="#191918"/>
</g>
<defs>
<clipPath id="clip0">
<rect width="30" height="30" fill="white"/>
</clipPath>
</defs>
</svg>
