<svg width="27" height="30" viewBox="0 0 27 30" fill="none" xmlns="http://www.w3.org/2000/svg">
<path d="M20.6248 11.1722C20.1577 12.9579 19.0679 13.3513 18.4863 13.4302C18.1281 14.1464 17.3407 15.61 16.553 16.3454C16.2382 16.6392 15.8291 16.8872 15.337 17.0825C14.7088 17.3318 14.0454 17.4582 13.3653 17.4582C12.6852 17.4582 12.0218 17.3318 11.3936 17.0825C10.9017 16.8874 10.4924 16.6394 10.1776 16.3454C9.38975 15.6101 8.60235 14.1464 8.24413 13.4302C7.66274 13.3513 6.57285 12.9581 6.10579 11.1722C5.856 10.2172 5.91996 9.43874 6.29602 8.85832C6.46223 8.6018 6.66371 8.42708 6.85133 8.30877C6.85188 8.11813 6.85984 7.87946 6.88193 7.60798C6.54416 7.13859 6.08493 6.12583 6.65369 4.48653C7.25484 2.75349 8.61401 2.48585 9.27006 2.46266C9.49186 2.05036 9.91088 1.46499 10.6718 0.926842C11.5164 0.329123 12.6193 0 13.7773 0C15.2022 0 16.6361 0.501507 17.9237 1.45031C20.0114 2.98859 19.8326 6.40088 19.7814 7.02042C19.8572 7.53977 19.8782 7.99022 19.8791 8.30864C20.0667 8.42694 20.2682 8.60166 20.4344 8.85818C20.8105 9.43874 20.8745 10.2171 20.6248 11.1722ZM26.7305 24.4701V29.3138C26.7305 29.6927 26.4232 30 26.0442 30H0.686244C0.3073 30 0 29.6927 0 29.3138V24.4701C0 22.4858 1.1905 20.7273 3.03293 19.9903L9.03276 17.5904C9.20542 17.5215 9.39867 17.5252 9.56844 17.6015C9.73808 17.6775 9.8697 17.8193 9.93284 17.9942L11.4412 22.1642L11.7399 21.3056L11.2647 20.144C11.1782 19.9324 11.2027 19.6915 11.3302 19.5017C11.4577 19.3119 11.6712 19.198 11.8999 19.198H14.8307C15.0594 19.198 15.2731 19.3119 15.4004 19.5017C15.5279 19.6915 15.5524 19.9324 15.4659 20.144L14.9907 21.3056L15.2894 22.1642L16.7978 17.9942C16.8609 17.8193 16.9925 17.6775 17.1621 17.6015C17.3319 17.5253 17.5253 17.5216 17.6978 17.5904L23.6977 19.9903C25.5401 20.7273 26.7305 22.4858 26.7305 24.4701ZM23.0774 24.9967C23.0774 24.6178 22.7701 24.3105 22.3912 24.3105H17.7838C17.4048 24.3105 17.0975 24.6178 17.0975 24.9967V27.1364C17.0975 27.5154 17.4048 27.8227 17.7838 27.8227H22.3912C22.7701 27.8227 23.0774 27.5154 23.0774 27.1364V24.9967Z" fill="#191918"/>
</svg>
